<?xml version="1.0" standalone="no"?><!DOCTYPE svg PUBLIC "-//W3C//DTD SVG 1.1//EN" "http://www.w3.org/Graphics/SVG/1.1/DTD/svg11.dtd"><svg t="1608866324167" class="icon" viewBox="0 0 1024 1024" version="1.1" xmlns="http://www.w3.org/2000/svg" p-id="3017" xmlns:xlink="http://www.w3.org/1999/xlink" width="200" height="200"><defs><style type="text/css"></style></defs><path d="M483.9 885.4c-30.4 0-59.1-3-84.5-8.9-44.7-10.4-77.4-29.2-96.9-56-15.3-20.9-22-45.4-27.9-67.1-6.2-22.4-11.5-41.8-23.5-50.7-10.3-7.6-38.9-6.6-59.7-5.8-27.1 1-52.7 1.9-73.9-8-26.2-12.3-42.3-41.8-47.7-87.7-4.1-35-1.1-71.5 3.1-94 11.2-60 28.6-110.6 53-154.8 25.5-46 59.6-86.9 104.4-125 87.4-74.3 182.5-112 282.7-112 56.2 0 110.5 10 161.3 29.7 47.4 18.3 92.1 45.2 133 79.9l-41.4 49C692.1 211.4 607 179.6 513 179.6c-44.8 0-88.9 9.1-131.1 27.1-37.5 16-74.6 39.4-110.2 69.7-38.8 33-68.1 68-89.8 107.2-21.1 38.1-36.1 82.4-46.1 135.6-3.1 16.6-5.5 43.9-2.9 70.8 2.7 28 9.6 39.3 12 41.3 7.4 3.2 28.6 2.5 44.1 1.9 33.6-1.2 71.7-2.6 100 18.2 30 22.1 39.2 55.7 47.3 85.3 4.9 17.9 9.6 34.8 17.9 46.2 17.7 24.2 67.9 38.6 130 38.7 10.8 0 21.9-0.4 33.3-1.3C620 812 684 752.4 726.3 713l0.4-0.4c30.2-28.2 59.2-71.4 73.7-110.2 25.5-68 28.5-104.6 27.8-110.7l63.6-7.5c2.5 20.8-4.5 68.7-31.5 140.7-18 48-52.5 99.6-90 134.5l-0.4 0.4C724 802.5 647.3 874 522.5 883.9c-13.1 1-26 1.5-38.6 1.5zM145 631.2z" p-id="3018" fill="#2c2c2c"></path><path d="M335.1 360m-40 0a40 40 0 1 0 80 0 40 40 0 1 0-80 0Z" p-id="3019" fill="#2c2c2c"></path><path d="M216 503m-40 0a40 40 0 1 0 80 0 40 40 0 1 0-80 0Z" p-id="3020" fill="#2c2c2c"></path><path d="M502.5 306.5m-40 0a40 40 0 1 0 80 0 40 40 0 1 0-80 0Z" p-id="3021" fill="#2c2c2c"></path><path d="M680.1 343.8m-40 0a40 40 0 1 0 80 0 40 40 0 1 0-80 0Z" p-id="3022" fill="#2c2c2c"></path><path d="M878.9 268.1l46.8 43.9-353.4 377.8-91.7 49.5 44.9-93.2z" p-id="3023" fill="#2c2c2c"></path></svg>