<?xml version="1.0" standalone="no"?><!DOCTYPE svg PUBLIC "-//W3C//DTD SVG 1.1//EN" "http://www.w3.org/Graphics/SVG/1.1/DTD/svg11.dtd"><svg t="1599650631278" class="icon" viewBox="0 0 1024 1024" version="1.1" xmlns="http://www.w3.org/2000/svg" p-id="2543" xmlns:xlink="http://www.w3.org/1999/xlink" width="200" height="200"><defs><style type="text/css"></style></defs><path d="M640 928a34.56 34.56 0 0 1-14.08-3.2l-256-128A32.64 32.64 0 0 1 352 768V397.44L105.6 150.4a30.08 30.08 0 0 1-7.04-34.56A32 32 0 0 1 128 96h768a32 32 0 0 1 29.44 19.84 30.08 30.08 0 0 1-7.04 34.56L672 397.44V896a33.28 33.28 0 0 1-15.36 27.52 37.76 37.76 0 0 1-16.64 4.48z m-224-179.84l192 96V384a30.08 30.08 0 0 1 9.6-22.4l200.96-201.6H205.44l200.96 201.6A30.08 30.08 0 0 1 416 384z" fill="#4D4D4D" p-id="2544"></path></svg>