<?xml version="1.0" standalone="no"?><!DOCTYPE svg PUBLIC "-//W3C//DTD SVG 1.1//EN" "http://www.w3.org/Graphics/SVG/1.1/DTD/svg11.dtd"><svg t="1599732275066" class="icon" viewBox="0 0 1024 1024" version="1.1" xmlns="http://www.w3.org/2000/svg" p-id="4363" xmlns:xlink="http://www.w3.org/1999/xlink" width="200" height="200"><defs><style type="text/css"></style></defs><path d="M839.729152 879.312896c-47.525888 0-86.20032-38.675456-86.20032-86.20032 0-47.555584 38.674432-86.230016 86.20032-86.230016 47.55456 0 86.20032 38.674432 86.20032 86.230016 0 47.525888-38.64576 86.20032-86.20032 86.20032z m-241.794048-86.20032c0 47.524864-38.675456 86.20032-86.228992 86.20032-47.525888 0-86.20032-38.675456-86.20032-86.20032 0-47.555584 38.674432-86.230016 86.20032-86.230016 47.553536 0 86.228992 38.674432 86.228992 86.230016zM425.505792 230.757376c0-47.497216 38.674432-86.171648 86.20032-86.171648 47.553536 0 86.228992 38.674432 86.228992 86.171648 0 47.55456-38.675456 86.228992-86.228992 86.228992-47.525888 0-86.20032-38.674432-86.20032-86.228992zM269.882368 793.112576c0 47.524864-38.674432 86.20032-86.20032 86.20032-47.525888 0-86.20032-38.675456-86.20032-86.20032 0-47.555584 38.674432-86.230016 86.20032-86.230016 47.525888 0 86.20032 38.674432 86.20032 86.230016z m591.049728-130.341888c0.984064-2.777088 1.73568-5.669888 1.73568-8.909824V491.585536c0-6.914048-2.864128-13.827072-7.462912-18.42688-5.178368-4.598784-11.512832-7.462912-18.425856-7.462912H538.029056v-96.09216c0-3.095552-0.897024-6.017024-2.054144-8.822784 61.467648-11.454464 108.213248-65.287168 108.213248-130.023424C644.18816 157.718528 584.773632 98.304 511.706112 98.304c-73.038848 0-132.453376 59.414528-132.453376 132.453376 0 64.736256 46.715904 118.56896 108.184576 130.023424-1.041408 2.80576-1.794048 5.727232-1.794048 8.822784v96.09216h-298.72128c-7.491584 0-13.826048 2.864128-18.425856 7.462912-4.598784 4.599808-8.070144 11.512832-8.070144 18.42688h0.57856v162.275328c0 3.211264 0.751616 6.104064 1.73568 8.881152C99.680256 672.867328 51.2 727.218176 51.2 793.112576c0 73.037824 59.4432 132.482048 132.482048 132.482048 73.068544 0 132.483072-59.444224 132.483072-132.482048 0-63.724544-45.212672-117.036032-105.234432-129.618944 1.128448-2.950144 1.880064-6.132736 1.880064-9.632768V517.475328h272.832512v136.385536c0 3.355648 0.75264 6.36416 1.82272 9.198592-61.468672 11.455488-108.213248 65.287168-108.213248 130.05312 0 73.037824 59.414528 132.482048 132.453376 132.482048 73.06752 0 132.482048-59.444224 132.482048-132.482048 0-64.852992-46.88896-118.74304-108.531712-130.081792 1.042432-2.834432 1.794048-5.842944 1.794048-9.16992V517.475328H810.31168v136.385536c0 3.529728 0.750592 6.739968 1.967104 9.691136-59.906048 12.698624-105.03168 65.922048-105.03168 129.560576 0 73.037824 59.4432 132.482048 132.482048 132.482048s132.482048-59.444224 132.482048-132.482048c0-65.80736-48.334848-120.131584-111.279104-130.341888z" fill="" p-id="4364"></path></svg>