<?xml version="1.0" standalone="no"?><!DOCTYPE svg PUBLIC "-//W3C//DTD SVG 1.1//EN" "http://www.w3.org/Graphics/SVG/1.1/DTD/svg11.dtd"><svg t="1599733014002" class="icon" viewBox="0 0 1024 1024" version="1.1" xmlns="http://www.w3.org/2000/svg" p-id="5305" xmlns:xlink="http://www.w3.org/1999/xlink" width="200" height="200"><defs><style type="text/css"></style></defs><path d="M512 38.4a160 160 0 0 1 79.36 298.944l193.024 346.048a160 160 0 1 1-77.632 11.264L512.896 358.4H511.232l-193.856 336.32a160 160 0 1 1-77.568-11.392l193.024-345.856A160 160 0 0 1 512 38.4zM256 759.36a83.2 83.2 0 1 0 0 166.4 83.2 83.2 0 0 0 0-166.4z m512 0a83.2 83.2 0 1 0 0 166.4 83.2 83.2 0 0 0 0-166.4zM512 115.2a83.2 83.2 0 1 0 0 166.4 83.2 83.2 0 0 0 0-166.4z" p-id="5306"></path></svg>