<?xml version="1.0" standalone="no"?><!DOCTYPE svg PUBLIC "-//W3C//DTD SVG 1.1//EN" "http://www.w3.org/Graphics/SVG/1.1/DTD/svg11.dtd"><svg t="1558870098540" class="icon" style="" viewBox="0 0 1024 1024" version="1.1" xmlns="http://www.w3.org/2000/svg" p-id="1571" xmlns:xlink="http://www.w3.org/1999/xlink" width="200" height="200"><defs><style type="text/css"></style></defs><path d="M352 405.333333a53.333333 53.333333 0 1 1 0-106.666666 53.333333 53.333333 0 0 1 0 106.666666z m0 149.333334a53.333333 53.333333 0 1 1 0-106.666667 53.333333 53.333333 0 0 1 0 106.666667z m0 149.333333a53.333333 53.333333 0 1 1 0-106.666667 53.333333 53.333333 0 0 1 0 106.666667zM490.666667 373.333333a21.333333 21.333333 0 1 1 0-42.666666h234.666666a21.333333 21.333333 0 0 1 0 42.666666H490.666667z m0 149.333334a21.333333 21.333333 0 0 1 0-42.666667h234.666666a21.333333 21.333333 0 0 1 0 42.666667H490.666667z m0 149.333333a21.333333 21.333333 0 0 1 0-42.666667h234.666666a21.333333 21.333333 0 0 1 0 42.666667H490.666667z" p-id="1572"></path></svg>