<?xml version="1.0" standalone="no"?><!DOCTYPE svg PUBLIC "-//W3C//DTD SVG 1.1//EN" "http://www.w3.org/Graphics/SVG/1.1/DTD/svg11.dtd"><svg t="1599732533870" class="icon" viewBox="0 0 1024 1024" version="1.1" xmlns="http://www.w3.org/2000/svg" p-id="5164" xmlns:xlink="http://www.w3.org/1999/xlink" width="200" height="200"><defs><style type="text/css"></style></defs><path d="M771.53717041 215.35430908H400.75354028c-10.22882056 0-18.94976782 3.60900903-26.22216797 10.89129662-7.23284888 7.22790551-10.86657691 15.96368432-10.86657762 26.20239235v370.75396704c0 10.24859619 3.63372802 18.959656 10.86657762 26.23205615 7.26745606 7.23284888 15.99334741 10.85668945 26.22216797 10.85668945h370.78363013c10.24859619 0 18.99426246-3.62384057 26.22216797-10.85668945 7.26745606-7.26745606 10.89129663-15.98345923 10.89129662-26.23205615V252.44799805c0-10.23376465-3.62878394-18.96954346-10.89129662-26.20239235-7.22790551-7.27734352-15.97357177-10.88635254-26.22216797-10.88635253zM215.36419654 295.8648684v475.63769484c0 10.23870874 3.60900903 18.984375 10.88635253 26.20239305 7.21801734 7.32183814 15.96368432 10.92590308 26.20239306 10.92590309h475.66735793c-7.74206542 21.73315453-21.17449927 39.55078102-40.28247071 53.45782494C668.71997047 875.88696266 647.18457008 882.78857422 623.23657227 882.78857422h-370.78857422c-30.72106958 0-56.92346191-10.91601563-78.64672828-32.64917016C152.06811523 828.40625023 141.21142578 802.20385719 141.21142578 771.53222633V400.76342773c0-23.93811035 6.93127465-45.47351075 20.72460961-64.60125708 13.79333497-19.1129148 31.61096215-32.52557373 53.44299269-40.24292016l-0.01483154-0.04943872zM400.75354028 141.21142578h370.78363013c30.71612549 0 56.928406 10.85668945 78.66155982 32.5848999C871.92199731 195.54431176 882.78857422 221.73187256 882.78857422 252.44799805v370.75891112c0 30.69140648-10.86657691 56.92346191-32.58984399 78.64672829-21.73315453 21.72326636-47.94543433 32.57995582-78.66155982 32.57995652H400.75354028c-30.68151832 0-56.90368628-10.85668945-78.64178491-32.57995652-21.72326636-21.72326636-32.58984398-47.9553225-32.58984399-78.64672828V252.44799805c0-30.71118141 10.86657691-56.90368628 32.58984399-78.64672828C343.84490991 152.06811523 370.06707788 141.21142578 400.75354028 141.21142578z" p-id="5165"></path></svg>