<?xml version="1.0" standalone="no"?><!DOCTYPE svg PUBLIC "-//W3C//DTD SVG 1.1//EN" "http://www.w3.org/Graphics/SVG/1.1/DTD/svg11.dtd"><svg t="1599643186935" class="icon" viewBox="0 0 1186 1024" version="1.1" xmlns="http://www.w3.org/2000/svg" p-id="1673" xmlns:xlink="http://www.w3.org/1999/xlink" width="231.640625" height="200"><defs><style type="text/css"></style></defs><path d="M591.707784 915.740462A642.870487 642.870487 0 0 1 2.965954 526.459025a39.298888 39.298888 0 0 1 0-28.91805 632.489649 632.489649 0 0 1 584.292899-388.539948h8.897862a630.265183 630.265183 0 0 1 584.292899 388.539948 39.298888 39.298888 0 0 1 0 28.91805 637.680068 637.680068 0 0 1-336.635757 337.377245 646.577929 646.577929 0 0 1-252.106073 51.904192zM77.856287 512.370744a565.755688 565.755688 0 0 0 1026.961505 0 556.116338 556.116338 0 0 0-508.661077-329.220872h-8.897862a556.857827 556.857827 0 0 0-509.402566 329.220872z" p-id="1674"></path><path d="M590.966296 732.592814a218.739093 218.739093 0 1 1 222.446535-218.739093 218.739093 218.739093 0 0 1-222.446535 218.739093z m0-362.587852a144.590248 144.590248 0 1 0 148.29769 143.848759 148.29769 148.29769 0 0 0-148.29769-143.848759z" p-id="1675"></path><path d="M1137.443284 1023.997776a37.074423 37.074423 0 0 1-24.469119-8.897862L20.761677 65.253208A37.074423 37.074423 0 0 1 68.958426 8.900086l1092.212489 946.880752a37.074423 37.074423 0 0 1 0 52.64568 35.591446 35.591446 0 0 1-23.727631 15.571258z" p-id="1676"></path></svg>