<?xml version="1.0" standalone="no"?><!DOCTYPE svg PUBLIC "-//W3C//DTD SVG 1.1//EN" "http://www.w3.org/Graphics/SVG/1.1/DTD/svg11.dtd"><svg t="1599641427825" class="icon" viewBox="0 0 1024 1024" version="1.1" xmlns="http://www.w3.org/2000/svg" p-id="2731" xmlns:xlink="http://www.w3.org/1999/xlink" width="200" height="200"><defs><style type="text/css"></style></defs><path d="M784.445554 363.321796" p-id="2732"></path><path d="M955.565886 669.972894" p-id="2733"></path><path d="M511.602446 253.399267c225.183645 0 358.373087 194.514135 395.670551 257.663384-37.186947 62.838164-169.723519 255.459183-395.670551 255.459183-254.334569 0-367.242082-192.530968-396.838144-254.118652C151.39764 451.442786 287.621185 253.399267 511.602446 253.399267M511.602446 208.753441c-295.184953 0-446.712041 301.150828-446.712041 301.150828s114.359584 301.263391 446.712041 301.263391c300.993239 0 446.706925-300.079426 446.706925-300.079426S811.432185 208.753441 511.602446 208.753441L511.602446 208.753441 511.602446 208.753441zM511.602446 208.753441" p-id="2734"></path><path d="M511.624958 408.961252c58.475809 0 100.93176 42.456974 100.93176 100.985995 0 58.573023-42.435485 101.029998-100.93176 101.029998-58.497299 0-100.978832-42.456974-100.978832-101.029998C410.646126 451.418226 453.127659 408.961252 511.624958 408.961252M511.624958 364.319519c-84.540442 0-145.651264 63.706951-145.651264 145.627728 0 81.968873 61.086264 145.675824 145.651264 145.675824 84.516906 0 145.603169-63.707974 145.603169-145.675824C657.228127 428.004981 596.140841 364.319519 511.624958 364.319519L511.624958 364.319519 511.624958 364.319519zM511.624958 364.319519" p-id="2735"></path></svg>